# xmcd
#
# Track frame offsets:
#	182
#	20075
#	34335
#	48290
#	66307
#	80837
#	100772
#	116650
#	138380
#	150605
#	168525
#	183857
#	204342
#	222925
#	242720
#	257927
#
# Disc length: 3719 seconds
# Revision: 5
# Processed by: cddbd v1.5.2PL0 Copyright (c) Steve Scherf et al.
# Submitted via: dBpowerAMP V12.0
#
DISCID=e70e8510
DTITLE=Aretha Franklin - The Delta Meets Detroit: Aretha's Blues
DYEAR=1998
DGENRE=Soul
TTITLE0=Today I Sing The Blues
TTITLE1=Ramblin'
TTITLE2=Pitiful
TTITLE3=I Never Loved A Man (The Way I Love You) [Live]
TTITLE4=Night Life
TTITLE5=I Wonder
TTITLE6=Takin' Another Man's Place
TTITLE7=Night Time Is The Right Time
TTITLE8=River's Invitation
TTITLE9=Good To Me As I Am To You
TTITLE10=It Ain't Fair
TTITLE11=Going Down Slow
TTITLE12=Drown In My Own Tears
TTITLE13=You Are My Sunshine
TTITLE14=Dr. Feelgood (Love Is A Serious Business)
TTITLE15=The Thrill Is Gone (From Yesterday's Kiss)
EXTD=
EXTT0=
EXTT1=
EXTT2=
EXTT3=
EXTT4=
EXTT5=
EXTT6=
EXTT7=
EXTT8=
EXTT9=
EXTT10=
EXTT11=
EXTT12=
EXTT13=
EXTT14=
EXTT15=
PLAYORDER=
